<svg fill="none" height="111" viewBox="0 0 105 111" width="105" xmlns="http://www.w3.org/2000/svg" xmlns:xlink="http://www.w3.org/1999/xlink"><filter id="a" color-interpolation-filters="sRGB" filterUnits="userSpaceOnUse" height="111" width="104.297" x="0" y="0"><feFlood flood-opacity="0" result="BackgroundImageFix"/><feColorMatrix in="SourceAlpha" type="matrix" values="0 0 0 0 0 0 0 0 0 0 0 0 0 0 0 0 0 0 127 0"/><feOffset dx="-6" dy="12"/><feColorMatrix type="matrix" values="0 0 0 0 0.0392157 0 0 0 0 0.0470588 0 0 0 0 0.211765 0 0 0 0.1 0"/><feBlend in2="BackgroundImageFix" mode="normal" result="effect1_dropShadow"/><feBlend in="SourceGraphic" in2="effect1_dropShadow" mode="normal" result="shape"/></filter><filter id="b" color-interpolation-filters="sRGB" filterUnits="userSpaceOnUse" height="62.0783" width="49.489" x="30.5217" y="24.1956"><feFlood flood-opacity="0" result="BackgroundImageFix"/><feColorMatrix in="SourceAlpha" type="matrix" values="0 0 0 0 0 0 0 0 0 0 0 0 0 0 0 0 0 0 127 0"/><feOffset dx="-6" dy="12"/><feColorMatrix type="matrix" values="0 0 0 0 0.0392157 0 0 0 0 0.0470588 0 0 0 0 0.211765 0 0 0 0.1 0"/><feBlend in2="BackgroundImageFix" mode="normal" result="effect1_dropShadow"/><feBlend in="SourceGraphic" in2="effect1_dropShadow" mode="normal" result="shape"/></filter><g filter="url(#a)"><path d="m7 49.5c0-26.7923 21.5504-48.5 48.1486-48.5 26.5981 0 48.1484 21.7077 48.1484 48.5s-21.5503 48.5-48.1484 48.5c-26.5982 0-48.1486-21.7077-48.1486-48.5z" fill="#da6123"/><path d="m55.1486.5c-26.8778 0-48.6486 21.935-48.6486 49s21.7708 49 48.6486 49c26.8777 0 48.6484-21.935 48.6484-49s-21.7707-49-48.6484-49z" stroke="#eaeaea"/></g><path d="m55.1486 1c-26.5982 0-48.1486 21.7077-48.1486 48.5s21.5504 48.5 48.1486 48.5c26.5981 0 48.1484-21.7077 48.1484-48.5s-21.5503-48.5-48.1484-48.5zm22.4628 53.1936-34.1699 19.752c-3.0676 1.7209-6.9311-.489-6.9311-4.1069v-40.6774c0-3.5984 3.8441-5.8278 6.9311-4.1069l34.1699 20.9254c3.184 1.7992 3.184 6.4341 0 8.2138z" fill="#da6123"/><g filter="url(#b)"><path d="m43.4528 73.6791 34.1699-19.752c3.1841-1.7797 3.1841-6.4145 0-8.2137l-34.1699-20.9254c-3.087-1.721-6.9311.5084-6.9311 4.1068v40.6774c0 3.618 3.8636 5.8279 6.9311 4.1069z" fill="#f8fafc"/></g></svg>