<svg xmlns="http://www.w3.org/2000/svg" xmlns:xlink="http://www.w3.org/1999/xlink"><symbol id="sprite-arrow-right" viewBox="0 0 28 12"><title>arrow-right</title><path fill-rule="evenodd" clip-rule="evenodd" d="M17 0l10.5 5.166v.84L17 11.172v-.882L25.79 6H0V5h25.438L17 .882V0z" fill="inherit"/></symbol><symbol id="sprite-caret-down-bright" viewBox="0 0 22 12"><title>caret-down-bright</title><path d="M11.677 11.578h.12l.074-.093 8.324-10.328.328-.407h-2.064l-.075.094L11 10.08 3.616.844 3.541.75H1.477l.328.407 8.324 10.328.075.093h1.473z" fill="#F25A0C" stroke="#F25A0C" stroke-width=".5"/></symbol><symbol id="sprite-caret-down" viewBox="0 0 22 12"><title>caret-down</title><path d="M11.677 11.578h.12l.074-.093 8.324-10.328.328-.407h-2.064l-.075.094L11 10.08 3.616.844 3.541.75H1.477l.328.407 8.324 10.328.075.093h1.473z" fill="#DA6123" stroke="#DA6123" stroke-width=".5"/></symbol><symbol id="sprite-caret-left" viewBox="0 0 12 21"><title>caret-left</title><path d="M.586 10.84v.12l.093.075 10.328 8.324.407.328v-2.064l-.094-.075-9.237-7.384L11.32 2.78l.094-.075V.642l-.407.327L.68 9.293l-.093.075v1.472z" fill="inherit" stroke="inherit" stroke-width=".5"/></symbol><symbol fill="none" id="sprite-checkmark" viewBox="0 0 20 14"><title>checkmark</title><path d="M7.86 13.25h.116l.075-.089 10.14-12 .348-.411h-1.516l-.075.089L7.45 12.124 3.052 6.889l-.075-.09H1.46l.35.412 5.04 5.95.075.089h.935z" fill="currentColor" stroke="currentColor" stroke-width=".5"/></symbol><symbol id="sprite-close" viewBox="0 0 20 16"><title>close</title><mask id="a" maskUnits="userSpaceOnUse" x="0" y="0" width="20" height="16" fill="#000"><path fill="#fff" d="M0 0h20v16H0z"/><path fill-rule="evenodd" clip-rule="evenodd" d="M2 15l7.399-7L2 1h1.263L10 7.426 16.737 1H18l-7.399 7L18 15h-1.263L10 8.574 3.263 15H2z"/></mask><path fill-rule="evenodd" clip-rule="evenodd" d="M2 15l7.399-7L2 1h1.263L10 7.426 16.737 1H18l-7.399 7L18 15h-1.263L10 8.574 3.263 15H2z" fill="currentColor"/><path d="M9.399 8l.343.363.384-.363-.384-.363L9.398 8zM2 15l-.344-.363-.912.863H2V15zM2 1V.5H.744l.912.863L2 1zm1.263 0l.345-.362L3.463.5h-.2V1zM10 7.426l-.345.362.345.329.345-.33-.345-.36zM16.737 1V.5h-.2l-.145.138.345.362zM18 1l.344.363.912-.863H18V1zm-7.399 7l-.343-.363L9.874 8l.384.363.344-.363zM18 15v.5h1.256l-.912-.863L18 15zm-1.263 0l-.345.362.145.138h.2V15zM10 8.574l.345-.362L10 7.883l-.345.33.345.361zM3.263 15v.5h.2l.145-.138L3.263 15zm5.792-7.363l-7.399 7 .688.726 7.398-7-.687-.726zM1.656 1.363l7.399 7 .687-.726-7.398-7-.688.726zM3.263.5H2v1h1.263v-1zm7.082 6.564L3.608.638l-.69.724 6.737 6.426.69-.724zM16.392.638L9.655 7.064l.69.724 6.737-6.426-.69-.724zM18 .5h-1.263v1H18v-1zm-7.055 7.863l7.399-7-.688-.726-7.398 7 .687.726zm7.399 6.274l-7.399-7-.687.726 7.398 7 .688-.726zm-1.607.863H18v-1h-1.263v1zM9.655 8.936l6.737 6.426.69-.724-6.737-6.426-.69.724zm-6.047 6.426l6.737-6.426-.69-.724-6.737 6.426.69.724zM2 15.5h1.263v-1H2v1z" fill="currentColor" mask="url(#a)"/></symbol><symbol id="sprite-down" viewBox="0 0 22 12"><title>down</title><path d="M11.677 11.578h.12l.074-.093 8.324-10.328.328-.407h-2.064l-.075.094L11 10.08 3.616.844 3.541.75H1.477l.328.407 8.324 10.328.075.093h1.473z" fill="currentColor" stroke="currentColor" stroke-width=".5"/></symbol><symbol id="sprite-download" viewBox="0 0 16 21"><title>download</title><path fill-rule="evenodd" clip-rule="evenodd" d="M8.006 18.5L14 10h-1.5L8 16.3V0H7v16.3L2.5 10H1l6.166 8.5h.84zM0 20v.5h15.142V16h-1v3.5H1V16H0v4z"/></symbol><symbol id="sprite-email" viewBox="0 0 19 15"><title>email</title><path fill-rule="evenodd" clip-rule="evenodd" d="M0 4.6c.31.33.65.63 1.03.89 2.45 1.69 4.13 2.86 5.06 3.53.38.29.69.51.93.68.24.14.56.3.96.46.4.17.78.25 1.14.25.36 0 .73-.08 1.14-.25.4-.17.72-.32.96-.46.24-.17.55-.39.93-.68 1.16-.83 2.85-2.01 5.06-3.53.4-.26.75-.56 1.03-.89v8.09c0 .45-.16.84-.46 1.18-.33.31-.73.46-1.18.46H1.64c-.45 0-.84-.15-1.18-.46-.31-.34-.46-.73-.46-1.19V4.6zM.43.53C.72.17 1.12 0 1.64 0h14.97c.45 0 .83.15 1.14.46.33.33.5.71.5 1.14 0 .55-.17 1.07-.5 1.57-.33.47-.75.89-1.25 1.25-2.54 1.76-4.13 2.86-4.77 3.31-.05.05-.19.14-.43.29-.21.17-.39.3-.54.39-.14.1-.32.2-.53.32-.21.14-.4.24-.57.29-.19.07-.37.11-.53.11-.17 0-.34-.04-.53-.11-.17-.05-.36-.14-.57-.29-.21-.12-.39-.22-.53-.32-.14-.09-.32-.23-.54-.39-.24-.14-.38-.24-.43-.29-.62-.45-1.51-1.08-2.67-1.89-1.16-.78-1.87-1.26-2.1-1.42-.43-.29-.82-.68-1.18-1.18-.38-.5-.57-.96-.57-1.39C0 1.31.14.87.43.53z"/></symbol><symbol id="sprite-facebook" viewBox="0 0 17 18"><title>facebook</title><path d="M12.762 10.125l.551-3.258H9.868V4.753c0-.89.481-1.76 2.024-1.76h1.566V.22S12.038 0 10.678 0C7.841 0 5.987 1.56 5.987 4.385v2.482H2.833v3.258h3.154V18h3.881v-7.875h2.894z"/></symbol><symbol fill="none" id="sprite-file" viewBox="0 0 13 17"><title>file</title><g clip-path="url(#clip0)"><path d="M8.884 3.09V.25H1.251C.699.25.25.7.25 1.251v14.503c0 .552.449 1 1 1h10.5c.551 0 1-.448 1-1V4.09H9.882a1 1 0 01-.998-1.001z"/><path d="M8.885.25v2.84c0 .552.449 1 1 1h2.866L8.9.25h-.016zM2.936 8.195h7.007m-7.007 2.252h7.007m-7.007 2.249h7.007"/></g><defs><clipPath id="clip0"><path d="M0 0h13v17H0z"/></clipPath></defs></symbol><symbol id="sprite-hamburger" viewBox="0 0 19 14"><title>hamburger</title><path fill-rule="evenodd" clip-rule="evenodd" d="M1 0h18l-1 2H0l1-2zm0 6h18l-1 2H0l1-2zm18 6H1l-1 2h18l1-2z" fill="currentColor"/></symbol><symbol id="sprite-instagram" viewBox="0 0 34 34"><title>Instagram</title><defs><path id="a" d="M0 16.998h17.994V.005H0z"/></defs><g fill-rule="evenodd"><g transform="translate(8 8)"><mask id="b" fill="#fff"><use xmlns:xlink="http://www.w3.org/1999/xlink" xlink:href="#a"/></mask><path d="M8.997.005c-2.443 0-2.75.01-3.71.051-.957.042-1.611.185-2.183.395a4.445 4.445 0 00-1.594.98A4.15 4.15 0 00.472 2.938C.25 3.477.098 4.095.054 4.999.01 5.906 0 6.195 0 8.503c0 2.307.01 2.597.054 3.503.044.905.196 1.522.418 2.063a4.15 4.15 0 001.038 1.505c.5.472 1.002.763 1.594.98.572.21 1.226.354 2.184.395.96.041 1.266.051 3.71.051 2.443 0 2.749-.01 3.709-.051.957-.041 1.611-.185 2.184-.395a4.445 4.445 0 001.593-.98 4.15 4.15 0 001.038-1.505c.222-.54.375-1.158.418-2.063.044-.906.054-1.196.054-3.503 0-2.308-.01-2.597-.054-3.504-.044-.904-.196-1.522-.418-2.062a4.15 4.15 0 00-1.038-1.505 4.445 4.445 0 00-1.593-.98c-.573-.21-1.227-.354-2.184-.396-.96-.04-1.266-.05-3.71-.05zm0 1.531c2.402 0 2.687.01 3.636.05.877.038 1.353.176 1.67.293.42.154.72.338 1.035.635.315.298.51.58.673.977.123.3.27.75.31 1.578.043.896.052 1.165.052 3.434s-.009 2.537-.052 3.433c-.04.829-.187 1.279-.31 1.578-.163.397-.358.68-.673.977a2.808 2.808 0 01-1.035.636c-.317.116-.793.255-1.67.292-.949.041-1.233.05-3.636.05-2.402 0-2.687-.009-3.635-.05-.878-.037-1.354-.176-1.671-.292a2.808 2.808 0 01-1.035-.636 2.624 2.624 0 01-.673-.977c-.123-.3-.27-.75-.31-1.578-.043-.896-.052-1.164-.052-3.433 0-2.27.01-2.538.053-3.434.04-.828.186-1.278.31-1.578a2.63 2.63 0 01.672-.977 2.808 2.808 0 011.035-.635c.317-.117.793-.255 1.67-.293.95-.04 1.234-.05 3.636-.05z" mask="url(#b)"/></g><path d="M8.997 11.335c-1.656 0-2.999-1.268-2.999-2.832 0-1.565 1.343-2.833 3-2.833 1.655 0 2.998 1.268 2.998 2.833 0 1.564-1.343 2.832-2.999 2.832zm0-7.196c-2.551 0-4.62 1.954-4.62 4.364s2.069 4.363 4.62 4.363c2.552 0 4.62-1.953 4.62-4.363s-2.068-4.364-4.62-4.364zm5.883-.172c0 .563-.484 1.02-1.08 1.02-.596 0-1.08-.457-1.08-1.02s.484-1.02 1.08-1.02c.596 0 1.08.457 1.08 1.02" transform="translate(8 8)"/><path d="M16.93 33.86C7.595 33.86 0 26.265 0 16.93S7.595 0 16.93 0s16.93 7.595 16.93 16.93-7.595 16.93-16.93 16.93zm0-32c-8.31 0-15.07 6.76-15.07 15.07S8.62 32 16.93 32 32 25.24 32 16.93 25.24 1.86 16.93 1.86z"/></g></symbol><symbol id="sprite-linkedin" viewBox="0 0 17 18"><title>linkedin</title><g clip-path="url(#clip0)"><path d="M3.805 18H.281V5.983h3.524V18zM2.041 4.343C.914 4.343 0 3.355 0 2.162 0 1.588.215 1.039.598.633A1.985 1.985 0 012.04 0c.541 0 1.06.228 1.443.633.383.406.598.955.598 1.529 0 1.193-.914 2.181-2.04 2.181zM16.996 18H13.48v-5.85c0-1.394-.026-3.182-1.832-3.182-1.833 0-2.113 1.515-2.113 3.082V18H6.013V5.983h3.38v1.639h.05c.47-.944 1.62-1.94 3.334-1.94 3.567 0 4.223 2.486 4.223 5.717V18h-.004z"/></g><defs><clipPath id="clip0"><path d="M0 0h17v18H0V0z"/></clipPath></defs></symbol><symbol id="sprite-phone" viewBox="0 0 37 49"><title>phone</title><path d="M7.795 15.253c.068.347.079.57.156.77a65.48 65.48 0 0010.008 17.614c.607.764 1.255 1.495 1.887 2.24.087.099.2.177.364.316.181-.168.378-.293.49-.467.262-.407.482-.842.723-1.262.082-.145.169-.29.272-.42.456-.566.8-.599 1.359-.123a407.14 407.14 0 012.372 2.042c2.459 2.127 4.916 4.258 7.372 6.387l.14.12c.73.642.77 1.108-.014 1.705-1.354 1.03-2.738 2.033-4.172 2.953-.631.405-1.412.606-2.148.836-.25.078-.605.035-.85-.08-4.97-2.302-9.57-5.145-13.568-8.84C7.16 34.4 3.657 28.85 1.702 22.392.762 19.288.17 16.12.045 12.892c-.095-2.464 0-4.933-.019-7.4-.007-.866.37-1.48 1.066-1.985 1.421-1.032 3.013-1.74 4.657-2.353.449-.169.902-.33 1.365-.464.857-.248 1.215-.047 1.404.808.536 2.44 1.06 4.884 1.588 7.328.363 1.678.725 3.354 1.086 5.033.035.16.071.324.092.489.056.434-.146.762-.598.816-.473.056-.958.01-1.438.024-.458.007-.91.037-1.453.065z"/><path d="M34.918 42.365L23.3 32.292c.595-.402 1.12-.824 1.708-1.134.599-.315 1.16-.114 1.662.317 1.861 1.597 3.734 3.183 5.6 4.773 1.087.925 2.16 1.86 3.263 2.768.443.365.578.798.376 1.285-.279.675-.631 1.323-.992 2.064zM9.646.093c.834-.133 1.635-.142 2.423.094.472.14.738.425.84.918a1382.61 1382.61 0 002.31 11.054c.226 1.059 0 1.576-1.399 2.18-.296.126-.621.188-1.002.3C11.762 9.793 10.71 4.966 9.646.093z"/></symbol><symbol id="sprite-play" viewBox="0 0 75 75"><title>play</title><path fill-rule="evenodd" clip-rule="evenodd" d="M67.72 37.36c0 16.768-13.592 30.36-30.36 30.36C20.593 67.72 7 54.129 7 37.36 7 20.593 20.593 7 37.36 7c16.768 0 30.36 13.593 30.36 30.36zm7 0c0 20.634-16.726 37.36-37.36 37.36C16.727 74.72 0 57.995 0 37.36 0 16.727 16.727 0 37.36 0c20.634 0 37.36 16.727 37.36 37.36zM29.426 22.813l21.16 14.547-21.16 14.548V22.813z"/></symbol><symbol id="sprite-plus" viewBox="0 0 18 18"><title>plus</title><path d="M9 0a.72.72 0 00-.72.72v7.56H.72a.72.72 0 100 1.44h7.56v7.56a.72.72 0 101.44 0V9.72h7.56a.72.72 0 100-1.44H9.72V.72A.72.72 0 009 0z"/></symbol><symbol id="sprite-search" viewBox="0 0 18 18"><title>search</title><path d="M17.755 15.562l-3.505-3.505a.843.843 0 00-.598-.246h-.573a7.275 7.275 0 001.547-4.5A7.311 7.311 0 007.313 0 7.311 7.311 0 000 7.312a7.311 7.311 0 007.313 7.312c1.698 0 3.26-.577 4.5-1.547v.573c0 .225.088.44.246.597l3.506 3.505a.84.84 0 001.192 0l.995-.995c.33-.33.33-.864.003-1.195zm-10.442-3.75a4.497 4.497 0 01-4.5-4.5c0-2.486 2.01-4.5 4.5-4.5 2.486 0 4.5 2.011 4.5 4.5 0 2.485-2.01 4.5-4.5 4.5z" fill="currentColor"/></symbol><symbol id="sprite-twitter" viewBox="0 0 18 18"><title>twitter</title><path d="M16.15 5.143c.011.16.011.32.011.48 0 4.877-3.712 10.496-10.496 10.496-2.09 0-4.032-.605-5.665-1.656.297.034.582.046.89.046a7.388 7.388 0 004.58-1.576 3.695 3.695 0 01-3.448-2.559c.228.035.456.057.696.057.331 0 .663-.045.971-.125a3.69 3.69 0 01-2.958-3.62V6.64a3.715 3.715 0 001.667.468A3.686 3.686 0 01.754 4.036c0-.686.182-1.314.502-1.862a10.486 10.486 0 007.607 3.86 4.165 4.165 0 01-.091-.845A3.687 3.687 0 0112.46 1.5a3.68 3.68 0 012.695 1.165 7.262 7.262 0 002.341-.89 3.679 3.679 0 01-1.621 2.032A7.395 7.395 0 0018 3.237a7.928 7.928 0 01-1.85 1.906z"/></symbol></svg>