<svg width="791" height="645" viewBox="0 0 791 645" fill="none" xmlns="http://www.w3.org/2000/svg">
<path d="M457.171 1.68899C640.518 1.68898 789.11 145.375 789.11 322.67C789.11 499.965 640.519 643.651 457.171 643.651C273.824 643.651 125.233 499.965 125.233 322.67C125.233 145.375 273.873 1.68901 457.171 1.68899ZM457.171 596.071C613.329 596.07 739.905 473.673 739.905 322.67C739.905 171.667 613.329 49.2697 457.171 49.2697C301.014 49.2697 174.438 171.667 174.438 322.67C174.438 473.673 301.014 596.071 457.171 596.071Z" fill="#DA6123"/>
<path d="M457.171 49.2688C613.328 49.2688 739.904 171.666 739.904 322.669C739.904 473.672 613.328 596.07 457.171 596.07C301.013 596.07 174.437 473.672 174.437 322.669C174.437 171.666 301.013 49.2688 457.171 49.2688ZM457.171 548.442C586.139 548.442 690.65 447.333 690.65 322.669C690.65 197.959 586.09 96.8967 457.171 96.8968C328.251 96.8968 223.691 198.006 223.691 322.669C223.691 447.38 328.203 548.442 457.171 548.442Z" fill="white"/>
<path d="M457.174 96.8975C586.142 96.8975 690.654 198.007 690.654 322.67C690.654 447.381 586.093 548.442 457.174 548.442C328.255 548.442 223.694 447.333 223.694 322.67C223.694 197.959 328.206 96.8975 457.174 96.8975ZM457.174 500.862C558.952 500.862 641.449 421.088 641.449 322.67C641.449 224.251 558.952 144.478 457.174 144.478C355.396 144.478 272.899 224.251 272.899 322.67C272.899 421.088 355.396 500.862 457.174 500.862Z" fill="#DA6123"/>
<path d="M457.172 144.477C558.951 144.477 641.447 224.251 641.447 322.669C641.447 421.088 558.951 500.861 457.172 500.861C355.394 500.861 272.898 421.088 272.898 322.669C272.898 224.251 355.394 144.477 457.172 144.477ZM457.172 453.28C531.761 453.28 592.242 394.795 592.242 322.669C592.242 250.543 531.761 192.058 457.172 192.058C382.584 192.058 322.103 250.543 322.103 322.669C322.103 394.795 382.584 453.28 457.172 453.28Z" fill="white"/>
<path d="M457.173 192.059C531.762 192.059 592.243 250.544 592.243 322.67C592.243 394.797 531.762 453.281 457.173 453.281C382.585 453.281 322.103 394.797 322.103 322.67C322.103 250.544 382.585 192.059 457.173 192.059ZM457.173 405.653C504.572 405.653 542.989 368.504 542.989 322.67C542.989 276.836 504.572 239.687 457.173 239.687C409.774 239.687 371.357 276.836 371.357 322.67C371.357 368.505 409.774 405.653 457.173 405.653Z" fill="#DA6123"/>
<path d="M457.176 239.687C504.575 239.687 542.992 276.836 542.992 322.67C542.992 368.504 504.575 405.653 457.176 405.653C409.777 405.653 371.36 368.504 371.36 322.67C371.36 276.836 409.777 239.687 457.176 239.687ZM457.176 358.072C477.386 358.072 493.787 342.212 493.787 322.67C493.787 303.128 477.386 287.268 457.176 287.268C436.967 287.268 420.565 303.128 420.565 322.67C420.565 342.212 436.967 358.072 457.176 358.072Z" fill="white"/>
<path d="M457.175 358.073C436.955 358.073 420.564 342.223 420.564 322.67C420.564 303.118 436.955 287.268 457.175 287.268C477.394 287.268 493.786 303.118 493.786 322.67C493.786 342.223 477.394 358.073 457.175 358.073Z" fill="#DA6123"/>
<path d="M215.735 542.778L250.539 509.123C254.981 513.701 259.57 518.186 264.354 522.481L229.549 556.137C224.765 551.841 220.177 547.357 215.735 542.778Z" fill="#C4571F"/>
<path d="M285.346 475.465L320.2 441.762C324.544 446.435 329.182 450.919 334.014 455.12L299.161 488.823C294.328 484.575 289.739 480.138 285.346 475.465Z" fill="#C4571F"/>
<path d="M355.055 408.061L390.006 374.263C394.058 379.22 398.695 383.704 403.821 387.622L368.87 421.419C363.939 417.312 359.302 412.828 355.055 408.061Z" fill="#C4571F"/>
<path d="M425.349 340.089L443.264 322.765L457.079 336.124L439.164 353.447C433.404 350.285 428.62 345.659 425.349 340.089Z" fill="#C4571F"/>
<path d="M299.115 488.826L264.31 522.482C259.575 518.186 254.938 513.749 250.495 509.123L285.3 475.468C289.742 480.141 294.331 484.578 299.115 488.826Z" fill="#EAEAEA"/>
<path d="M368.866 421.419L333.964 455.169C329.131 450.968 324.494 446.484 320.149 441.81L355.051 408.06C359.298 412.828 363.936 417.312 368.866 421.419Z" fill="#EAEAEA"/>
<path d="M439.164 353.447L403.822 387.622C398.697 383.704 394.059 379.22 390.008 374.263L425.349 340.088C428.62 345.658 433.404 350.284 439.164 353.447Z" fill="#EAEAEA"/>
<path d="M110.593 323.05L71.5417 360.812L3.20134 360.812L42.2529 323.05L110.593 323.05Z" fill="#DA6123"/>
<path d="M110.593 323.046L71.5417 285.283L3.20134 285.283L42.2529 323.046L110.593 323.046Z" fill="#DA6123"/>
<path d="M125.233 322.67C125.233 499.965 273.824 643.651 457.171 643.651C640.519 643.651 789.11 499.965 789.11 322.67C789.11 145.375 640.518 1.68898 457.171 1.68899" stroke="#0A0C36" stroke-width="2" stroke-miterlimit="10" stroke-linecap="round"/>
<path d="M739.905 322.669C739.905 171.666 613.329 49.2688 457.171 49.2688C301.013 49.2688 174.437 171.667 174.437 322.669C174.437 473.672 301.013 596.07 457.171 596.07" stroke="#0A0C36" stroke-width="2" stroke-miterlimit="10" stroke-linecap="round"/>
<path d="M457.174 96.8975C328.206 96.8975 223.694 198.007 223.694 322.67C223.694 447.333 328.206 548.442 457.174 548.442C586.142 548.442 690.654 447.333 690.654 322.67" stroke="#0A0C36" stroke-width="2" stroke-miterlimit="10" stroke-linecap="round"/>
<path d="M457.172 144.477C355.394 144.477 272.898 224.251 272.898 322.669C272.898 421.087 355.394 500.861 457.172 500.861C558.951 500.861 641.447 421.087 641.447 322.669" stroke="#0A0C36" stroke-width="2" stroke-miterlimit="10" stroke-linecap="round"/>
<path d="M592.243 322.671C592.243 250.544 531.762 192.06 457.173 192.06C382.585 192.06 322.103 250.544 322.103 322.671C322.103 394.797 382.585 453.282 457.173 453.281" stroke="#0A0C36" stroke-width="2" stroke-miterlimit="10" stroke-linecap="round"/>
<path d="M457.171 239.687C409.772 239.687 371.355 276.836 371.355 322.67C371.355 368.504 409.772 405.653 457.171 405.653C504.57 405.653 542.987 368.504 542.987 322.67" stroke="#0A0C36" stroke-width="2" stroke-miterlimit="10" stroke-linecap="round"/>
<path d="M457.175 358.073C477.384 358.073 493.785 342.213 493.785 322.67C493.785 303.128 477.384 287.268 457.175 287.268" stroke="#0A0C36" stroke-width="2" stroke-miterlimit="10" stroke-linecap="round"/>
<path d="M105.218 317.948L71.536 285.283L3.00039 285.283" stroke="#0A0C36" stroke-width="2" stroke-miterlimit="10"/>
<path d="M100.831 332.298L71.5421 360.808L3.20171 360.808L32.4904 332.392" stroke="#0A0C36" stroke-width="2" stroke-miterlimit="10"/>
<path d="M456.981 323.047L32.2948 323.047" stroke="white" stroke-width="18" stroke-miterlimit="10"/>
<path d="M71.3464 285.284L3.20133 285.284L32.2948 313.228L32.2948 332.487L456.981 332.487" stroke="#0A0C36" stroke-width="2" stroke-miterlimit="10"/>
</svg>
