<svg width="636" height="804" viewBox="0 0 636 804" fill="none" xmlns="http://www.w3.org/2000/svg">
<path d="M432.474 538.303V476.65C432.474 444.902 447.462 415.206 470.531 393.385C515.831 350.496 544.467 289.219 542.29 221.367C538.564 104.972 444.322 8.3873 328.058 2.18848H298.5C182.236 8.3873 87.9933 104.972 84.2671 221.367C82.09 289.219 110.727 350.496 156.027 393.385C179.096 415.206 194.084 444.902 194.084 476.65V538.303" stroke="#0A0C36" stroke-width="4" stroke-miterlimit="10"/>
<path d="M356.358 657.672H280.998C246.332 657.672 217.109 631.285 217.109 596.606V582.281H418.07V596.606C418.07 631.327 391.066 657.672 356.358 657.672Z" fill="#DA6123"/>
<path d="M184.327 537.633L189.895 549.486C191.988 551.078 199.818 563.81 202.958 566.449C204.925 568.124 206.516 570.051 207.772 572.145C209.572 572.899 210.954 574.323 211.875 576.041H420.163C421.963 573.276 448.548 548.397 450.851 546.01L455.038 538.345L184.327 537.633Z" fill="#DEDEDD"/>
<path d="M177.336 538.303H459.937" stroke="#0A0C36" stroke-width="4" stroke-miterlimit="10"/>
<path d="M193.036 555.057H442.688" stroke="#0A0C36" stroke-width="4" stroke-miterlimit="10"/>
<path d="M209.783 571.81H424.351" stroke="#0A0C36" stroke-width="4" stroke-miterlimit="10"/>
<path d="M399.267 662.07C387.921 668.688 374.901 672.332 361.671 672.332H337.472H319.72H315.492H297.74H273.541C260.311 672.332 247.291 668.688 235.945 662.07" stroke="#0A0C36" stroke-width="4" stroke-miterlimit="10"/>
<path d="M302.938 705.839V672.332" stroke="#0A0C36" stroke-width="4" stroke-miterlimit="10"/>
<path d="M328.052 705.839V672.332" stroke="#0A0C36" stroke-width="4" stroke-miterlimit="10"/>
<path d="M97.287 760.288V710.027H260.568V760.288" stroke="#0A0C36" stroke-width="4" stroke-miterlimit="10"/>
<path opacity="0.6" d="M273.627 747.765H72.1638V802.172H273.627V747.765Z" fill="#0A0C36" stroke="#0A0C36" stroke-width="2" stroke-miterlimit="10"/>
<path d="M130.783 777.042H114.037" stroke="#0A0C36" stroke-width="2" stroke-miterlimit="10"/>
<path d="M105.66 785.418C110.285 785.418 114.034 781.668 114.034 777.042C114.034 772.415 110.285 768.665 105.66 768.665C101.036 768.665 97.287 772.415 97.287 777.042C97.287 781.668 101.036 785.418 105.66 785.418Z" stroke="#0A0C36" stroke-width="2" stroke-miterlimit="10"/>
<path d="M35.409 452.358V518.492L81.5881 558.366C91.5106 568.292 104.992 573.779 119.017 573.612L132.917 573.444L81.4625 529.256V485.865C81.4625 473.383 76.9828 462.326 68.9025 455.499V452.316C68.9025 431.583 56.6355 414.788 35.9533 414.788V419.269C31.2642 416.421 25.654 414.788 19.2065 414.788V419.269C29.5895 425.677 35.409 438.075 35.409 452.358Z" fill="#EAEAEA"/>
<path d="M132.956 573.444L81.5016 529.256V485.865C81.5016 473.383 77.0218 462.326 68.9415 455.499V452.316C68.9415 431.583 56.6746 414.788 35.9923 414.788C35.9923 414.788 25.6931 414.788 19.2456 414.788V419.269" stroke="#0A0C36" stroke-width="4" stroke-miterlimit="10" stroke-linecap="round"/>
<path d="M236.741 707.515V615.956C236.741 604.648 232.261 593.8 224.265 585.8L124.077 485.572L122.696 484.189C107.121 499.77 108.545 526.409 124.077 541.989L156.985 573.151L119.053 573.612C105.028 573.779 91.5468 568.292 81.6244 558.366L35.4453 518.492V452.358C35.4453 431.625 23.1783 414.83 2.49609 414.83V433.594V544.209L119.639 655.914V707.222" stroke="#0A0C36" stroke-width="4" stroke-miterlimit="10"/>
<path d="M538.859 760.288V710.027H375.579V760.288" stroke="#0A0C36" stroke-width="4" stroke-miterlimit="10"/>
<path opacity="0.6" d="M362.512 802.165L563.975 802.165L563.975 747.757L362.512 747.757L362.512 802.165Z" fill="#0A0C36" stroke="#0A0C36" stroke-width="2" stroke-miterlimit="10"/>
<path d="M505.36 777.042H522.106" stroke="#0A0C36" stroke-width="2" stroke-miterlimit="10"/>
<path d="M530.48 785.418C535.105 785.418 538.854 781.668 538.854 777.042C538.854 772.415 535.105 768.665 530.48 768.665C525.856 768.665 522.107 772.415 522.107 777.042C522.107 781.668 525.856 785.418 530.48 785.418Z" stroke="#0A0C36" stroke-width="2" stroke-miterlimit="10"/>
<path d="M600.736 452.358V518.492L554.557 558.366C544.634 568.292 531.153 573.779 517.128 573.612L503.228 573.444L554.682 529.256V485.865C554.682 473.383 559.162 462.326 567.242 455.499V452.316C567.242 431.583 579.509 414.788 600.191 414.788V419.269C604.881 416.421 610.491 414.788 616.938 414.788V419.269C606.555 425.677 600.736 438.075 600.736 452.358Z" fill="#EAEAEA"/>
<path d="M503.228 573.444L554.682 529.256V485.865C554.682 473.383 559.162 462.326 567.242 455.499V452.316C567.242 431.583 579.509 414.788 600.191 414.788C600.191 414.788 610.491 414.788 616.938 414.788V419.269" stroke="#0A0C36" stroke-width="4" stroke-miterlimit="10" stroke-linecap="round"/>
<path d="M399.436 707.515V615.956C399.436 604.648 403.916 593.8 411.912 585.8L512.1 485.572L513.481 484.189C529.056 499.77 527.632 526.409 512.1 541.989L479.192 573.151L517.124 573.612C531.149 573.779 544.63 568.292 554.553 558.366L600.732 518.492V452.358C600.732 431.625 612.999 414.83 633.681 414.83V433.594V544.209L516.538 655.914V707.222" stroke="#0A0C36" stroke-width="4" stroke-miterlimit="10"/>
<path d="M491.335 237.534V232.55H446.496C446.496 304.8 387.757 363.605 315.494 363.605C243.232 363.605 184.493 304.8 184.493 232.55H139.654V237.534L179.637 247.545L190.354 287.544L160.713 316.193L165.695 324.779L205.343 313.428L234.608 342.705L223.262 382.369L231.844 387.353L260.481 357.741L300.464 368.464L310.512 408.463H320.435L330.441 368.464L370.424 357.741L399.061 387.353L407.643 382.369L396.297 342.705L425.562 313.428L465.21 324.779L470.192 316.193L440.551 287.544L451.269 247.545L491.335 237.534Z" fill="#EAEAEA"/>
<path d="M354.558 234.938C354.558 235.147 354.599 235.315 354.599 235.524C354.599 257.094 337.057 274.602 315.538 274.602C293.976 274.602 276.476 257.052 276.476 235.524C276.476 235.315 276.518 235.147 276.518 234.938H256.882C256.882 235.147 256.882 235.315 256.882 235.524C256.882 267.859 283.175 294.162 315.496 294.162C347.817 294.162 374.109 267.859 374.109 235.524C374.109 235.315 374.109 235.147 374.109 234.938H354.558V234.938Z" fill="#DEDEDD"/>
<path d="M410.493 118.71L422.467 76.742C408.735 68.8259 410.619 69.873 396.887 61.957L366.533 93.328C354.978 90.2286 352.34 89.5166 340.827 86.4172L330.276 44.0725C314.451 44.0725 316.586 44.0725 300.718 44.0725L290.126 86.4172C278.571 89.5166 275.933 90.2286 264.42 93.328L234.066 61.957C220.334 69.873 222.218 68.8259 208.486 76.742L220.46 118.71C212.003 127.17 210.077 129.097 201.62 137.558L159.669 125.579C151.756 139.317 152.803 137.432 144.89 151.17L176.248 181.536C173.15 193.096 172.438 195.734 169.34 207.252L127.097 217.807C127.097 233.639 127.097 231.503 127.097 247.377L169.424 257.974C172.522 269.534 173.234 272.173 176.332 283.691L144.974 314.057C152.887 327.794 151.84 325.91 159.753 339.648L201.703 327.669C210.161 336.129 212.086 338.056 220.543 346.517L208.57 388.484C222.302 396.4 220.418 395.353 234.15 403.269L264.504 371.898C276.059 374.998 278.697 375.71 290.21 378.809L300.718 421.028C316.544 421.028 314.409 421.028 330.276 421.028L340.869 378.683C352.424 375.584 355.062 374.872 366.575 371.773L396.928 403.144C410.661 395.228 408.777 396.275 422.509 388.359L410.535 346.391C418.992 337.93 420.918 336.004 429.375 327.543L471.326 339.522C479.239 325.784 478.192 327.669 486.105 313.931L454.747 283.565C457.845 272.005 458.557 269.366 461.655 257.848L503.898 247.335C503.898 231.503 503.898 233.639 503.898 217.765L461.571 207.169C458.473 195.609 457.761 192.97 454.663 181.452L486.021 151.086C478.108 137.348 479.155 139.233 471.242 125.495L429.292 137.474C420.876 129.055 418.95 127.128 410.493 118.71Z" stroke="#475059" stroke-width="2" stroke-miterlimit="10"/>
<path d="M315.497 114.102C250.101 114.102 197.056 167.127 197.056 232.592C197.056 298.056 250.101 351.04 315.497 351.04C380.893 351.04 433.939 298.015 433.939 232.55C433.939 167.085 380.893 114.102 315.497 114.102ZM315.497 324.108C265.048 324.108 223.977 283.02 223.977 232.55C223.977 182.08 265.048 141.033 315.497 141.033C365.947 141.033 407.018 182.122 407.018 232.592C407.018 283.062 365.947 324.108 315.497 324.108Z" fill="#DA6123"/>
<path d="M330.276 44.0725L340.869 86.4172C352.424 89.5166 355.062 90.2286 366.575 93.328L396.928 61.957C410.661 69.873 408.777 68.8259 422.509 76.742L410.535 118.71C418.992 127.17 420.918 129.097 429.375 137.558L471.326 125.579C479.239 139.317 478.192 137.432 486.105 151.17L454.747 181.536C457.845 193.096 458.556 195.734 461.655 207.252L503.898 217.807C503.898 233.639 503.898 231.503 503.898 247.377L461.571 257.974C458.473 269.534 457.761 272.173 454.663 283.691L486.021 314.057C478.108 327.794 479.155 325.91 471.242 339.648L429.292 327.669C420.834 336.129 418.909 338.056 410.451 346.517L422.425 388.484C408.693 396.4 410.577 395.353 396.845 403.269L366.491 371.898C354.936 374.998 352.298 375.71 340.785 378.809L330.276 421.028C314.451 421.028 316.586 421.028 300.718 421.028L290.126 378.725C278.571 375.626 275.933 374.914 264.42 371.814L234.066 403.186C220.334 395.27 222.218 396.317 208.486 388.401L220.46 346.433C212.003 337.972 210.077 336.046 201.62 327.585L159.669 339.564C151.756 325.826 152.803 327.711 144.89 313.973L176.248 283.607C173.15 272.047 172.438 269.408 169.34 257.89L127.097 247.335C127.097 231.503 127.097 233.639 127.097 217.765L169.424 207.169C172.522 195.609 173.234 192.97 176.332 181.452L144.974 151.086C152.887 137.348 151.84 139.233 159.753 125.495L201.703 137.474C210.16 129.013 212.086 127.087 220.543 118.626L208.528 76.742C222.26 68.8259 220.376 69.873 234.108 61.957L264.462 93.328C276.017 90.2286 278.655 89.5166 290.168 86.4172L300.718 44.0725C316.586 44.0725 314.409 44.0725 330.276 44.0725Z" stroke="#475059" stroke-width="4" stroke-miterlimit="10"/>
<path d="M315.497 351.04C380.911 351.04 433.939 297.991 433.939 232.551C433.939 167.11 380.911 114.061 315.497 114.061C250.084 114.061 197.056 167.11 197.056 232.551C197.056 297.991 250.084 351.04 315.497 351.04Z" stroke="#475059" stroke-width="4" stroke-miterlimit="10"/>
<path d="M315.495 257.681C329.368 257.681 340.615 246.43 340.615 232.551C340.615 218.671 329.368 207.42 315.495 207.42C301.621 207.42 290.375 218.671 290.375 232.551C290.375 246.43 301.621 257.681 315.495 257.681Z" stroke="#475059" stroke-width="4" stroke-miterlimit="10"/>
<path d="M315.495 275.649C339.288 275.649 358.576 256.353 358.576 232.55C358.576 208.748 339.288 189.452 315.495 189.452C291.702 189.452 272.414 208.748 272.414 232.55C272.414 256.353 291.702 275.649 315.495 275.649Z" stroke="#475059" stroke-width="4" stroke-miterlimit="10"/>
<path d="M315.494 305.26C355.635 305.26 388.175 272.707 388.175 232.55C388.175 192.393 355.635 159.839 315.494 159.839C275.354 159.839 242.814 192.393 242.814 232.55C242.814 272.707 275.354 305.26 315.494 305.26Z" stroke="#475059" stroke-width="4" stroke-miterlimit="10"/>
</svg>
