<svg width="118" height="122" viewBox="-21 -27 173 178" fill="none" xmlns="http://www.w3.org/2000/svg">
<path d="M98.3969 70.3519H80.7239C81.3889 69.1829 81.78 67.8357 81.78 66.3893C81.78 62.0173 78.2793 58.4708 73.9637 58.4708C69.6482 58.4708 66.1475 62.0173 66.1475 66.3893C66.1475 67.8357 66.5386 69.1829 67.2036 70.3519H49.5371V88.2561C50.691 87.5825 52.0208 87.1862 53.4485 87.1862C57.7641 87.1862 61.2648 90.7327 61.2648 95.1047C61.2648 99.4768 57.7641 103.023 53.4485 103.023C52.0208 103.023 50.691 102.627 49.5371 101.953V121.198H98.4034L117.999 100.857V49.2116L98.3969 70.3519Z" fill="#DA6123"/>
<path d="M53.4493 87.186C51.9956 87.186 50.6396 87.5955 49.4727 88.2956V70.3583H31.7998C32.4647 71.5273 32.8559 72.8746 32.8559 74.3209C32.8559 78.6929 29.3552 82.2394 25.0396 82.2394C20.724 82.2394 17.2233 78.6929 17.2233 74.3209C17.2233 72.8746 17.6145 71.5273 18.2794 70.3583H0.606445V120.544H49.4727V101.92C50.6396 102.62 51.9956 103.03 53.4493 103.03C57.7649 103.03 61.2656 99.4832 61.2656 95.1112C61.2656 90.7325 57.7649 87.186 53.4493 87.186Z" fill="#282944" stroke="#282944" stroke-width="0.454236" stroke-miterlimit="10"/>
<path d="M69.1014 51.2916V1H20.196L0.606445 20.8459V70.3515H18.2794C17.6145 71.5205 17.2233 72.8678 17.2233 74.3141C17.2233 78.6861 20.724 82.2326 25.0396 82.2326C29.3552 82.2326 32.8559 78.6861 32.8559 74.3141C32.8559 72.8678 32.4647 71.5205 31.7998 70.3515H49.4727L69.1014 51.2916Z" fill="#EAEAEA"/>
<path d="M98.4042 70.3449L117.335 50.532V1.03958L69.0948 1.02637L49.5379 20.8392L49.5314 38.75C48.3775 38.0764 47.0476 37.6801 45.62 37.6801C41.3044 37.6801 37.8037 41.2266 37.8037 45.5986C37.8037 49.9707 41.3044 53.5172 45.62 53.5172C47.0476 53.5172 48.3775 53.1209 49.5314 52.4473V70.3515H67.2043C66.5394 69.1825 66.1482 67.8352 66.1482 66.3889C66.1482 62.0169 69.6489 58.4704 73.9645 58.4704C78.2801 58.4704 81.7807 62.0169 81.7807 66.3889C81.7807 67.8352 81.3896 69.1825 80.7247 70.3515L98.4042 70.3449Z" stroke="#0A0C36" stroke-width="0.454236" stroke-miterlimit="10"/>
<path d="M98.3447 20.8986L117.341 1.02637" stroke="#0A0C36" stroke-width="0.454236" stroke-miterlimit="10"/>
<path d="M49.5449 20.8392H98.2873V70.1005" stroke="#0A0C36" stroke-width="0.454236" stroke-miterlimit="10"/>
<path d="M49.4725 121.198V101.914C50.6394 102.614 51.9954 103.023 53.4491 103.023C57.7647 103.023 61.2654 99.4766 61.2654 95.1046C61.2654 90.7325 57.7647 87.186 53.4491 87.186C51.9954 87.186 50.6394 87.5955 49.4725 88.2956V70.3583H31.7996C32.4645 71.5273 32.8557 72.8746 32.8557 74.3209C32.8557 78.6929 29.355 82.2394 25.0394 82.2394C20.7238 82.2394 17.2231 78.6929 17.2231 74.3209C17.2231 72.8746 17.6143 71.5273 18.2792 70.3583H0" stroke="#0A0C36" stroke-width="0.454236" stroke-miterlimit="10"/>
<path d="M72.9219 20.8986L92.5375 1.02637" stroke="#0A0C36" stroke-width="0.454236" stroke-miterlimit="10"/>
<path d="M61.2656 40.6456H86.6766" stroke="#0A0C36" stroke-width="0.454236" stroke-miterlimit="10"/>
<path d="M61.2656 36.6828H86.6766" stroke="#0A0C36" stroke-width="0.454236" stroke-miterlimit="10"/>
</svg>
